REM DIRINDEX 1\2,1\4,1\5,1\6,1\7,1\3\8,1\3\9,1\3\10
REM DIRNAME cjc113,folder01,folder02,folder03,folder04,folder05,folder06,folder07,folder08,folder09
TITLE ""
FILE "DB4500_5th_4B_38.mp3" MP3
  TRACK 01 AUDIO
    TITLE "0:"
    INDEX 01 00:00:00
  TRACK 02 AUDIO
    TITLE "8:cjc113_3191"
    INDEX 01 00:00:03
  TRACK 03 AUDIO
    TITLE "0:"
    INDEX 01 00:01:22
  TRACK 04 AUDIO
    TITLE "9:cjc113_3192"
    INDEX 01 00:01:38
  TRACK 05 AUDIO
    TITLE "0:"
    INDEX 01 00:03:04
  TRACK 06 AUDIO
    TITLE "10:cjc113_3193"
    INDEX 01 00:03:25
  TRACK 07 AUDIO
    TITLE "0:"
    INDEX 01 00:08:17
  TRACK 08 AUDIO
    TITLE "8:cjc113_3194"
    INDEX 01 00:08:62
  TRACK 09 AUDIO
    TITLE "0:"
    INDEX 01 00:09:65
  TRACK 10 AUDIO
    TITLE "9:cjc113_3195"
    INDEX 01 00:10:10
  TRACK 11 AUDIO
    TITLE "0:"
    INDEX 01 00:11:35
  TRACK 12 AUDIO
    TITLE "10:cjc113_3196"
    INDEX 01 00:11:52
  TRACK 13 AUDIO
    TITLE "0:"
    INDEX 01 00:14:58
  TRACK 14 AUDIO
    TITLE "8:cjc113_3197"
    INDEX 01 00:15:27
  TRACK 15 AUDIO
    TITLE "0:"
    INDEX 01 00:16:51
  TRACK 16 AUDIO
    TITLE "9:cjc113_3198"
    INDEX 01 00:16:67
  TRACK 17 AUDIO
    TITLE "0:"
    INDEX 01 00:18:11
  TRACK 18 AUDIO
    TITLE "10:cjc113_3199"
    INDEX 01 00:18:27
  TRACK 19 AUDIO
    TITLE "0:"
    INDEX 01 00:22:34
  TRACK 20 AUDIO
    TITLE "8:cjc113_3200"
    INDEX 01 00:23:03
  TRACK 21 AUDIO
    TITLE "0:"
    INDEX 01 00:24:24
  TRACK 22 AUDIO
    TITLE "9:cjc113_3201"
    INDEX 01 00:24:43
  TRACK 23 AUDIO
    TITLE "0:"
    INDEX 01 00:25:64
  TRACK 24 AUDIO
    TITLE "10:cjc113_3202"
    INDEX 01 00:26:11
  TRACK 25 AUDIO
    TITLE "0:"
    INDEX 01 00:30:38
  TRACK 26 AUDIO
    TITLE "8:cjc113_3203"
    INDEX 01 00:31:02
  TRACK 27 AUDIO
    TITLE "0:"
    INDEX 01 00:32:19
  TRACK 28 AUDIO
    TITLE "9:cjc113_3204"
    INDEX 01 00:32:37
  TRACK 29 AUDIO
    TITLE "0:"
    INDEX 01 00:33:62
  TRACK 30 AUDIO
    TITLE "10:cjc113_3205"
    INDEX 01 00:34:06
  TRACK 31 AUDIO
    TITLE "0:"
    INDEX 01 00:37:22
  TRACK 32 AUDIO
    TITLE "8:cjc113_3206"
    INDEX 01 00:37:67
  TRACK 33 AUDIO
    TITLE "0:"
    INDEX 01 00:39:13
  TRACK 34 AUDIO
    TITLE "9:cjc113_3207"
    INDEX 01 00:39:33
  TRACK 35 AUDIO
    TITLE "0:"
    INDEX 01 00:40:58
  TRACK 36 AUDIO
    TITLE "10:cjc113_3208"
    INDEX 01 00:41:02
  TRACK 37 AUDIO
    TITLE "0:"
    INDEX 01 00:45:04
  TRACK 38 AUDIO
    TITLE "8:cjc113_3209"
    INDEX 01 00:45:49
  TRACK 39 AUDIO
    TITLE "0:"
    INDEX 01 00:46:74
  TRACK 40 AUDIO
    TITLE "9:cjc113_3210"
    INDEX 01 00:47:13
  TRACK 41 AUDIO
    TITLE "0:"
    INDEX 01 00:48:28
  TRACK 42 AUDIO
    TITLE "10:cjc113_3211"
    INDEX 01 00:48:48
  TRACK 43 AUDIO
    TITLE "0:"
    INDEX 01 00:51:07
  TRACK 44 AUDIO
    TITLE "8:cjc113_3212"
    INDEX 01 00:51:48
  TRACK 45 AUDIO
    TITLE "0:"
    INDEX 01 00:52:61
  TRACK 46 AUDIO
    TITLE "9:cjc113_3213"
    INDEX 01 00:53:02
  TRACK 47 AUDIO
    TITLE "0:"
    INDEX 01 00:54:23
  TRACK 48 AUDIO
    TITLE "10:cjc113_3214"
    INDEX 01 00:54:42
  TRACK 49 AUDIO
    TITLE "0:"
    INDEX 01 00:58:17
  TRACK 50 AUDIO
    TITLE "8:cjc113_3215"
    INDEX 01 00:58:60
  TRACK 51 AUDIO
    TITLE "0:"
    INDEX 01 00:59:67
  TRACK 52 AUDIO
    TITLE "9:cjc113_3216"
    INDEX 01 01:00:12
  TRACK 53 AUDIO
    TITLE "0:"
    INDEX 01 01:01:44
  TRACK 54 AUDIO
    TITLE "10:cjc113_3217"
    INDEX 01 01:01:66
  TRACK 55 AUDIO
    TITLE "0:"
    INDEX 01 01:05:62
  TRACK 56 AUDIO
    TITLE "8:cjc113_3218"
    INDEX 01 01:06:30
  TRACK 57 AUDIO
    TITLE "0:"
    INDEX 01 01:07:47
  TRACK 58 AUDIO
    TITLE "9:cjc113_3219"
    INDEX 01 01:07:66
  TRACK 59 AUDIO
    TITLE "0:"
    INDEX 01 01:09:32
  TRACK 60 AUDIO
    TITLE "10:cjc113_3220"
    INDEX 01 01:09:50
  TRACK 61 AUDIO
    TITLE "0:"
    INDEX 01 01:13:32
  TRACK 62 AUDIO
    TITLE "8:cjc113_3221"
    INDEX 01 01:14:00
  TRACK 63 AUDIO
    TITLE "0:"
    INDEX 01 01:15:40
  TRACK 64 AUDIO
    TITLE "9:cjc113_3222"
    INDEX 01 01:15:64
  TRACK 65 AUDIO
    TITLE "0:"
    INDEX 01 01:17:22
  TRACK 66 AUDIO
    TITLE "10:cjc113_3223"
    INDEX 01 01:17:45
  TRACK 67 AUDIO
    TITLE "0:"
    INDEX 01 01:21:55
  TRACK 68 AUDIO
    TITLE "8:cjc113_3224"
    INDEX 01 01:22:27
  TRACK 69 AUDIO
    TITLE "0:"
    INDEX 01 01:23:40
  TRACK 70 AUDIO
    TITLE "9:cjc113_3225"
    INDEX 01 01:23:63
  TRACK 71 AUDIO
    TITLE "0:"
    INDEX 01 01:25:60
  TRACK 72 AUDIO
    TITLE "10:cjc113_3226"
    INDEX 01 01:26:09
  TRACK 73 AUDIO
    TITLE "0:"
    INDEX 01 01:30:62
  TRACK 74 AUDIO
    TITLE "8:cjc113_3227"
    INDEX 01 01:31:32
  TRACK 75 AUDIO
    TITLE "0:"
    INDEX 01 01:34:16
  TRACK 76 AUDIO
    TITLE "9:cjc113_3228"
    INDEX 01 01:34:42
  TRACK 77 AUDIO
    TITLE "0:"
    INDEX 01 01:36:13
  TRACK 78 AUDIO
    TITLE "10:cjc113_3229"
    INDEX 01 01:36:35
  TRACK 79 AUDIO
    TITLE "0:"
    INDEX 01 01:39:63
  TRACK 80 AUDIO
    TITLE "10:cjc113_3230"
    INDEX 01 01:40:31
  TRACK 81 AUDIO
    TITLE "0:"
    INDEX 01 01:44:52
